<?xml version="1.0" standalone="no"?>
<!DOCTYPE svg PUBLIC "-//W3C//DTD SVG 20010904//EN"
 "http://www.w3.org/TR/2001/REC-SVG-20010904/DTD/svg10.dtd">
<svg version="1.0" xmlns="http://www.w3.org/2000/svg"
 width="554.000000pt" height="153.000000pt" viewBox="0 0 554.000000 153.000000"
 preserveAspectRatio="xMidYMid meet">

<g transform="translate(0.000000,153.000000) scale(0.100000,-0.100000)"
fill="#000000" stroke="none">
<path d="M654 1299 c-16 -5 -41 -20 -55 -35 -23 -24 -24 -34 -29 -167 l-5
-142 -187 -5 -188 -5 -32 -33 -33 -32 -3 -175 -3 -175 203 0 c173 0 208 3 238
18 57 28 70 67 70 215 l0 127 175 0 c264 0 265 1 265 255 l0 165 -192 -1
c-106 0 -207 -5 -224 -10z m356 -181 c0 -173 7 -168 -212 -168 l-168 0 0 127
c0 173 -12 163 207 163 l173 0 0 -122z m-445 -354 c0 -172 10 -164 -212 -164
l-173 0 0 120 c0 115 1 122 25 146 24 24 25 24 192 22 l168 -3 0 -121z"/>
<path d="M1650 565 l0 -215 35 0 35 0 0 215 0 215 -35 0 -35 0 0 -215z"/>
<path d="M1138 754 c-51 -27 -58 -57 -58 -234 l0 -160 213 0 c292 0 287 -4
287 250 l0 160 -207 0 c-164 -1 -214 -4 -235 -16z m382 -104 l0 -60 -190 0
-190 0 0 44 c0 71 13 76 212 76 l168 0 0 -60z m0 -152 c0 -75 -8 -78 -207 -78
l-173 0 0 60 0 60 190 0 190 0 0 -42z"/>
<path d="M1849 755 c-54 -29 -59 -50 -59 -230 l0 -165 205 0 c297 0 295 -2
295 250 l0 160 -207 0 c-160 -1 -214 -4 -234 -15z m381 -168 c0 -177 12 -167
-211 -167 l-181 0 4 124 c4 174 -6 166 215 166 l173 0 0 -123z"/>
<path d="M2431 757 c-13 -6 -34 -25 -45 -40 -19 -26 -21 -44 -24 -193 l-3
-164 30 0 31 0 0 149 c0 135 2 151 21 175 21 26 23 27 127 24 l107 -3 3 -172
2 -173 25 0 25 0 0 175 0 175 130 0 130 0 0 -175 0 -175 25 0 25 0 0 205 0
205 -292 0 c-213 0 -300 -4 -317 -13z"/>
<path d="M3178 754 c-48 -26 -58 -60 -58 -200 l0 -126 34 -34 34 -34 200 0
c196 0 201 1 216 22 9 12 16 26 16 30 0 5 -92 8 -203 8 -232 0 -237 2 -237 78
l0 42 155 0 155 0 0 25 0 25 -155 0 -155 0 0 43 c0 74 8 77 218 77 169 0 183
1 202 20 11 11 20 25 20 30 0 6 -76 10 -207 10 -164 -1 -214 -4 -235 -16z"/>
<path d="M3690 650 l0 -120 200 0 200 0 0 -85 0 -85 35 0 35 0 0 205 0 205
-35 0 -35 0 0 -85 0 -85 -170 0 -170 0 0 68 c0 54 -4 72 -18 85 -37 34 -42 23
-42 -103z"/>
<path d="M4288 754 c-51 -27 -58 -57 -58 -234 l0 -160 30 0 30 0 0 85 0 85
190 0 190 0 0 -85 0 -85 30 0 30 0 0 205 0 205 -207 0 c-164 -1 -214 -4 -235
-16z m382 -104 l0 -60 -190 0 -190 0 0 42 c0 75 8 78 207 78 l173 0 0 -60z"/>
<path d="M4800 565 l0 -205 120 0 120 0 0 30 0 30 -90 0 -90 0 0 155 c0 142
-2 157 -20 175 -11 11 -24 20 -30 20 -6 0 -10 -75 -10 -205z"/>
<path d="M5110 565 l0 -205 120 0 120 0 0 30 0 30 -90 0 -90 0 0 155 c0 142
-2 157 -20 175 -11 11 -24 20 -30 20 -6 0 -10 -75 -10 -205z"/>
</g>
)"/>
</svg>
